<svg xmlns="http://www.w3.org/2000/svg" width="1236" height="1206" viewBox="0 0 1236 1206">
  <defs>
    <style>
      .cls-1 {
        fill: #94000a;
      }

      .cls-1, .cls-2, .cls-3 {
        fill-rule: evenodd;
      }

      .cls-2 {
        fill: #383838;
      }

      .cls-2, .cls-3 {
        stroke: #383838;
        stroke-width: 20px;
      }

      .cls-3 {
        fill: #b50016;
      }
    </style>
  </defs>
  <path class="cls-1" d="M322,1074a556.087,556.087,0,0,0,591,0q-15-19.995-30-40a507.365,507.365,0,0,1-531,0Q337,1053.995,322,1074Z"/>
  <path class="cls-1" d="M266,1034l30-40A511.893,511.893,0,0,1,124,485L77,471A553.167,553.167,0,0,0,266,1034Z"/>
  <path class="cls-1" d="M145,419L97,405A549.647,549.647,0,0,1,580,48V97A504.553,504.553,0,0,0,145,419Z"/>
  <path class="cls-1" d="M649,97V47c116.247,6.283,227.47,48.158,318,121a552.282,552.282,0,0,1,170,235l-48,15A506.357,506.357,0,0,0,933,206C851.815,141.369,752.721,103.676,649,97Z"/>
  <path class="cls-1" d="M1110,484l48-15a555.638,555.638,0,0,1-3,282c-30.75,111.73-96.03,210.553-186,284q-15-20.5-30-41c81.76-68.266,140.76-159.324,168-262A509.623,509.623,0,0,0,1110,484Z"/>
  <path id="Shape_21_copy_2" data-name="Shape 21 copy 2" class="cls-2" d="M223.82,655.315L486.479,765.567c19.029,7.221,35.674,3.217,42.155-6.486a21.458,21.458,0,0,0,3.243-12.971V687.742a24.907,24.907,0,0,0,0-9.729c-2.243-10.992-11.926-18.915-22.7-22.7L227.062,551.548c-21.329-7.763-38.246-5.7-45.4,3.243a17.9,17.9,0,0,0-3.243,6.485v51.883a48.483,48.483,0,0,0,3.243,9.729C189.163,639.308,205.3,650,223.82,655.315Z"/>
  <path id="Shape_21_copy_3" data-name="Shape 21 copy 3" class="cls-2" d="M761.82,660.685l262.66-110.252c19.03-7.221,35.67-3.217,42.15,6.486a21.419,21.419,0,0,1,3.25,12.971v58.368a25.075,25.075,0,0,1,0,9.728c-2.25,10.993-11.93,18.916-22.7,22.7L765.062,764.452c-21.329,7.763-38.246,5.7-45.4-3.243a17.913,17.913,0,0,1-3.243-6.485V702.84a48.453,48.453,0,0,1,3.243-9.728C727.163,676.691,743.3,666,761.82,660.685Z"/>
  <path class="cls-3" d="M223.82,504.685L486.479,394.433c19.029-7.221,35.674-3.217,42.155,6.486a21.458,21.458,0,0,1,3.243,12.971v58.368a24.9,24.9,0,0,1,0,9.728c-2.243,10.993-11.926,18.916-22.7,22.7L227.062,608.452c-21.329,7.763-38.246,5.7-45.4-3.243a17.9,17.9,0,0,1-3.243-6.485V546.84a48.453,48.453,0,0,1,3.243-9.728C189.163,520.691,205.3,510,223.82,504.685Z"/>
  <path id="Shape_21_copy" data-name="Shape 21 copy" class="cls-3" d="M1024.18,504.685L761.521,394.433c-19.029-7.221-35.674-3.217-42.155,6.486a21.458,21.458,0,0,0-3.243,12.971v58.368a24.9,24.9,0,0,0,0,9.728c2.243,10.993,11.926,18.916,22.7,22.7L1020.94,608.452c21.33,7.763,38.24,5.7,45.4-3.243a18,18,0,0,0,3.24-6.485V546.84a48.954,48.954,0,0,0-3.24-9.728C1058.84,520.691,1042.71,510,1024.18,504.685Z"/>
</svg>
